<svg version="1.1" id="Layer_1" xmlns="http://www.w3.org/2000/svg" xmlns:xlink="http://www.w3.org/1999/xlink" x="0px" y="0px"
	 width="100%" viewBox="0 0 736 736" enable-background="new 0 0 736 736" xml:space="preserve">
<path fill="#FFFFFF" opacity="1.000000" stroke="none" 
	d="
M471.000000,737.000000 
	C314.000000,737.000000 157.500000,737.000000 1.000000,737.000000 
	C1.000000,491.666656 1.000000,246.333328 1.000000,1.000000 
	C246.333328,1.000000 491.666656,1.000000 737.000000,1.000000 
	C737.000000,246.333328 737.000000,491.666656 737.000000,737.000000 
	C648.500000,737.000000 560.000000,737.000000 471.000000,737.000000 
M314.183685,313.970337 
	C312.623779,314.307678 311.063843,314.645050 309.460114,314.770447 
	C309.460114,314.770447 309.154449,315.024200 308.472778,314.912323 
	C307.929871,315.249359 307.386963,315.586395 306.216827,315.938293 
	C305.804138,315.995422 305.391449,316.052521 304.354523,315.889954 
	C299.920837,317.338440 295.487122,318.786926 290.385040,320.363617 
	C282.375946,325.278168 276.948822,332.412262 272.331238,341.186066 
	C259.890137,368.140869 273.447174,411.109741 314.372284,415.174774 
	C328.357300,416.563843 342.139130,419.998627 356.530334,422.945862 
	C357.382233,423.228180 358.234131,423.510468 359.509277,424.326965 
	C363.804230,427.252014 368.099213,430.177063 372.713440,433.779663 
	C373.104645,434.071777 373.495850,434.363892 374.023956,435.266205 
	C375.646118,437.194336 377.268280,439.122498 379.007629,441.754181 
	C382.596069,449.772583 387.034058,457.538208 389.518036,465.885254 
	C391.709747,473.250214 391.720947,481.264038 392.389893,489.807678 
	C392.465363,490.954529 392.540802,492.101379 392.308411,494.082550 
	C392.398163,497.974304 392.487946,501.866058 392.337891,506.474976 
	C392.550110,507.962830 392.762329,509.450714 392.743225,511.280457 
	C392.850281,511.785004 392.957367,512.289551 392.988892,513.669373 
	C393.265717,514.784363 393.542542,515.899292 393.637909,517.624817 
	C394.060883,518.819397 394.483887,520.013977 394.847382,521.970032 
	C400.335846,542.792358 421.646423,558.298767 443.519257,557.385620 
	C466.887238,556.410034 486.138580,539.566467 490.370300,516.118958 
	C491.606079,506.446564 491.643097,496.912018 487.085297,487.164062 
	C480.054321,469.158783 466.766113,459.251068 447.740906,456.788849 
	C439.987427,455.785431 432.220001,454.885712 424.474152,453.827423 
	C409.348846,451.760925 396.338715,445.160583 384.693542,434.585693 
	C383.763977,433.737152 382.834442,432.888611 381.781555,431.570465 
	C381.616608,431.267090 381.366608,431.073608 380.888336,430.326569 
	C379.678589,428.703674 378.468842,427.080780 377.133118,424.792969 
	C376.001495,422.546265 374.869904,420.299530 373.685059,417.309143 
	C367.331299,400.507355 365.631805,383.066803 366.626068,365.274902 
	C366.966492,359.182953 367.501801,353.101929 368.025055,346.558990 
	C368.025055,346.558990 368.040924,346.095886 368.659485,345.697388 
	C372.723328,328.349304 378.891418,312.138306 393.384857,300.421570 
	C393.384857,300.421570 393.578857,300.077576 394.241180,299.762665 
	C394.805878,299.299866 395.370605,298.837067 396.593201,298.263214 
	C404.374573,295.113007 412.155914,291.962799 420.647583,288.841034 
	C421.083740,288.673401 421.519897,288.505768 422.643890,288.511902 
	C423.975952,288.118530 425.308044,287.725159 427.393677,287.490448 
	C428.927765,287.331482 430.461853,287.172516 432.758087,287.266968 
	C440.240784,287.238342 447.799469,287.879669 455.190369,287.041534 
	C470.558624,285.298706 484.149078,279.674438 493.963013,266.007812 
	C496.612122,261.067078 500.040009,256.385040 501.781219,251.142792 
	C511.518372,221.826584 496.062439,187.872772 459.680237,186.423737 
	C447.797821,185.950470 435.918610,186.791092 425.888733,195.925201 
	C412.284607,206.883682 406.297302,221.526855 405.646393,238.567322 
	C404.946747,256.884338 402.907288,274.732971 390.127197,289.875580 
	C389.662384,290.494751 389.197571,291.113922 388.950439,291.992950 
	C388.950439,291.992950 388.739563,291.733856 388.090912,291.939362 
	C379.746490,296.349487 371.402069,300.759583 362.316681,305.152832 
	C361.883545,305.365326 361.450378,305.577820 360.331360,305.685547 
	C358.585297,306.203339 356.839233,306.721161 354.359741,307.188416 
	C353.913300,307.367096 353.466858,307.545746 352.291138,307.592896 
	C349.880310,308.141693 347.469482,308.690491 344.340271,309.202850 
	C343.896210,309.363922 343.452148,309.525024 342.355377,309.503174 
	C341.255096,309.764679 340.154785,310.026154 338.338623,310.205109 
	C337.904907,310.385040 337.471191,310.564972 336.465332,310.614990 
	C335.722260,310.782837 334.979187,310.950684 333.364410,311.048523 
	C329.243530,311.750092 325.122681,312.451630 320.183350,313.075256 
	C319.391418,313.249115 318.599518,313.422974 317.271790,313.408905 
	C316.563049,313.623047 315.854279,313.837219 314.183685,313.970337 
M314.096588,196.992874 
	C299.732727,184.782928 278.642120,182.945068 262.297607,192.479080 
	C242.873276,203.809570 234.359894,227.561905 242.308243,248.249252 
	C250.555191,269.713745 272.542084,281.928680 295.023254,276.695129 
	C313.103821,272.485992 324.981415,260.917267 329.270264,242.781784 
	C333.335480,225.591934 328.827972,210.526184 315.236542,198.072830 
	C315.026428,197.812515 314.758423,197.644485 314.096588,196.992874 
M333.446442,496.277832 
	C332.673309,493.674194 331.900146,491.070587 331.173035,487.751923 
	C322.762787,463.278595 297.292358,451.250092 273.170441,460.387146 
	C261.709686,464.728394 252.541656,471.618713 247.361679,483.787170 
	C247.270187,484.181000 247.178680,484.574860 246.811340,485.189423 
	C246.811340,485.189423 246.864670,485.538605 246.276123,486.039398 
	C234.294617,516.561218 257.985199,550.620544 290.170746,548.801575 
	C318.270355,547.213501 336.256195,523.471558 333.852692,499.302368 
	C333.660431,498.529907 333.468170,497.757446 333.446442,496.277832 
z"/>
<path fill="#12C395" opacity="1.000000" stroke="none" 
	d="
M247.873566,483.432190 
	C252.541656,471.618713 261.709686,464.728394 273.170441,460.387146 
	C297.292358,451.250092 322.762787,463.278595 331.120605,488.552734 
	C331.804077,491.897369 332.539978,494.441193 333.275879,496.984985 
	C333.468170,497.757446 333.660431,498.529907 333.548767,499.985840 
	C332.829956,502.766052 332.163910,504.849182 332.049286,506.962189 
	C331.757629,512.338867 330.598541,513.506042 324.796143,513.616760 
	C324.104187,511.797546 323.411560,509.976135 322.718964,508.154724 
	C322.317932,507.883881 321.916901,507.613037 321.515869,507.342224 
	C320.154694,515.606079 314.389099,513.973145 309.417786,513.986816 
	C295.616516,514.024902 281.814484,513.923767 268.014130,514.042480 
	C263.358246,514.082520 258.668488,514.718750 256.954773,508.757751 
	C256.895538,508.551727 256.090515,508.560120 255.633133,508.468567 
	C255.873627,508.792816 256.114136,509.117065 256.354614,509.441345 
	C254.677032,510.952637 253.154358,513.473755 251.288803,513.760010 
	C247.673950,514.314636 245.854919,511.477234 245.918304,508.106720 
	C246.059845,500.580750 246.528976,493.060944 246.864670,485.538605 
	C246.864670,485.538605 246.811340,485.189423 247.180573,484.886383 
	C247.657730,484.199615 247.765656,483.815918 247.873566,483.432190 
z"/>
<path fill="#0AB3AE" opacity="1.000000" stroke="none" 
	d="
M368.040924,346.095886 
	C368.040924,346.095886 368.025055,346.558990 367.645599,346.838440 
	C366.416382,348.810272 365.109772,350.436493 364.852020,352.214722 
	C364.618347,353.826752 365.952698,355.627350 365.862549,357.305420 
	C365.366394,366.543579 364.645172,375.769653 363.653442,385.057312 
	C362.935364,386.912933 362.565033,388.711121 362.198547,390.490631 
	C355.161163,385.891998 359.589355,377.325073 356.059937,371.549377 
	C354.177185,379.999756 354.177185,379.999908 345.535339,379.999969 
	C326.218781,380.000061 306.902222,380.017456 287.585724,379.988739 
	C282.213562,379.980743 276.643066,380.868591 271.721497,376.751251 
	C270.966553,373.998993 270.488861,371.497894 270.270386,368.785889 
	C270.353882,367.383820 270.178192,366.192627 270.001068,364.584595 
	C270.000458,362.778290 270.001251,361.388794 270.168945,359.911102 
	C270.225525,359.549072 270.115143,359.275238 270.003143,358.596680 
	C270.334320,356.457092 270.667175,354.722198 271.249756,352.808350 
	C271.340088,351.758087 271.180664,350.886841 271.158813,349.676514 
	C271.875061,347.224548 272.453766,345.111664 273.490662,342.999390 
	C277.428406,343.111847 280.910278,343.177673 284.386810,343.350586 
	C287.031647,343.482147 289.672791,343.959442 292.310303,343.921021 
	C304.244202,343.747223 316.187103,343.024445 328.105164,343.333313 
	C336.341309,343.546814 344.515717,345.259033 352.639984,342.341003 
	C354.869354,341.540283 357.787170,341.429565 357.827240,344.876862 
	C357.867065,348.303528 357.145111,351.753021 356.607117,355.168884 
	C355.970703,359.209778 355.173584,363.225342 354.446136,367.251892 
	C355.000519,367.472565 355.554871,367.693268 356.109222,367.913940 
	C357.026093,367.162933 358.641205,366.499390 358.747986,365.646912 
	C359.518677,359.493866 360.489899,353.291748 360.358307,347.127380 
	C360.278198,343.374084 361.875153,341.709625 364.733154,341.148926 
	C369.003326,340.311218 367.740234,343.880493 368.040924,346.095886 
z"/>
<path fill="#0BA6C0" opacity="1.000000" stroke="none" 
	d="
M315.470734,198.491058 
	C328.827972,210.526184 333.335480,225.591934 329.270264,242.781784 
	C324.981415,260.917267 313.103821,272.485992 295.023254,276.695129 
	C272.542084,281.928680 250.555191,269.713745 242.308243,248.249252 
	C234.359894,227.561905 242.873276,203.809570 262.297607,192.479080 
	C278.642120,182.945068 299.732727,184.782928 314.144592,197.400909 
	C314.192596,197.808945 313.957703,198.054077 313.604797,197.997940 
	C310.274780,196.191116 307.486786,193.888260 304.285583,192.792130 
	C294.233124,189.350037 284.416443,186.093750 273.227966,190.052612 
	C266.298523,192.504501 260.510010,195.990326 255.093246,200.479614 
	C249.644196,204.995682 247.040298,210.990402 244.504166,217.718323 
	C242.138107,223.995071 242.237473,229.527298 242.240494,236.026001 
	C246.609100,235.648941 250.364685,235.011642 254.112671,235.053635 
	C273.869507,235.274918 293.624451,235.668045 313.380066,235.998947 
	C314.211700,236.012878 315.097992,235.811432 315.866943,236.031464 
	C321.299988,237.585968 323.712677,235.493210 323.439850,229.960922 
	C323.436249,229.887375 323.968536,229.787415 325.347931,229.358994 
	C324.843079,233.911423 324.323303,238.036896 323.968231,242.176514 
	C323.874084,243.274185 324.286346,244.415283 324.466095,245.536453 
	C325.302795,244.764847 326.857483,244.000381 326.865234,243.220535 
	C326.943634,235.342392 327.210083,227.419769 326.465912,219.600800 
	C326.129730,216.068771 323.912445,212.585144 322.056274,209.363190 
	C319.977539,205.754807 317.341400,202.467499 315.082245,198.906616 
	C315.216644,198.772751 315.470734,198.491058 315.470734,198.491058 
z"/>
<path fill="#0EAEB6" opacity="1.000000" stroke="none" 
	d="
M368.350220,345.896637 
	C367.740234,343.880493 369.003326,340.311218 364.733154,341.148926 
	C361.875153,341.709625 360.278198,343.374084 360.358307,347.127380 
	C360.489899,353.291748 359.518677,359.493866 358.747986,365.646912 
	C358.641205,366.499390 357.026093,367.162933 356.109222,367.913940 
	C355.554871,367.693268 355.000519,367.472565 354.446136,367.251892 
	C355.173584,363.225342 355.970703,359.209778 356.607117,355.168884 
	C357.145111,351.753021 357.867065,348.303528 357.827240,344.876862 
	C357.787170,341.429565 354.869354,341.540283 352.639984,342.341003 
	C344.515717,345.259033 336.341309,343.546814 328.105164,343.333313 
	C316.187103,343.024445 304.244202,343.747223 292.310303,343.921021 
	C289.672791,343.959442 287.031647,343.482147 284.386810,343.350586 
	C280.910278,343.177673 277.428406,343.111847 273.475037,342.619141 
	C272.962921,341.732025 272.924591,341.225739 272.886292,340.719452 
	C276.948822,332.412262 282.375946,325.278168 290.980896,320.532684 
	C296.044067,319.171051 300.511414,317.640350 304.978760,316.109650 
	C305.391449,316.052521 305.804138,315.995422 306.977234,315.955200 
	C312.159027,315.032471 316.580414,314.092834 321.001801,313.153198 
	C325.122681,312.451630 329.243530,311.750092 334.029297,311.187378 
	C335.475250,311.132477 336.256378,310.938690 337.037476,310.744904 
	C337.471191,310.564972 337.904907,310.385040 338.920959,310.452148 
	C340.671570,310.361481 341.839844,310.023804 343.008087,309.686096 
	C343.452148,309.525024 343.896210,309.363922 344.969543,309.449280 
	C348.072693,309.038635 350.546570,308.381561 353.020447,307.724426 
	C353.466858,307.545746 353.913300,307.367096 354.961182,307.437042 
	C357.380798,307.053894 359.199036,306.422089 361.017242,305.790314 
	C361.450378,305.577820 361.883545,305.365326 362.929382,305.402924 
	C367.022583,304.754059 370.503082,303.855103 373.993835,303.338043 
	C373.757233,307.726410 373.510345,311.732880 373.263489,315.739349 
	C374.106384,315.874298 374.949280,316.009247 375.792175,316.144196 
	C376.352417,313.740906 376.771027,311.291962 377.525360,308.951233 
	C377.987457,307.517303 378.885925,306.197662 379.727509,304.918152 
	C381.222534,302.645294 386.154877,302.486145 384.020172,297.642059 
	C384.710999,296.877869 385.354431,296.431427 386.008728,296.369507 
	C387.322052,297.339874 388.642029,298.437927 389.922974,298.394135 
	C391.957275,298.324524 393.965485,297.492371 395.981995,297.215454 
	C395.945465,297.755890 395.930817,298.064636 395.935333,298.374268 
	C395.370605,298.837067 394.805878,299.299866 393.828979,299.925903 
	C393.416809,300.089142 393.182190,300.316620 393.182190,300.316620 
	C378.891418,312.138306 372.723328,328.349304 368.350220,345.896637 
z"/>
<path fill="#15BF9C" opacity="1.000000" stroke="none" 
	d="
M392.695007,488.991364 
	C391.720947,481.264038 391.709747,473.250214 389.518036,465.885254 
	C387.034058,457.538208 382.596069,449.772583 379.263611,441.267151 
	C381.326843,438.909668 383.134064,437.039276 384.941345,435.168884 
	C396.338715,445.160583 409.348846,451.760925 424.474152,453.827423 
	C432.220001,454.885712 439.987427,455.785431 447.740906,456.788849 
	C466.766113,459.251068 480.054321,469.158783 487.050262,487.573944 
	C487.015228,487.983826 486.903809,488.065704 486.569824,487.882385 
	C482.073547,486.798981 477.919739,485.169464 473.747437,485.120636 
	C451.596527,484.861359 429.438385,484.818542 407.288940,485.135010 
	C402.221832,485.207397 397.660736,485.974823 395.910339,479.749329 
	C395.860077,479.570496 395.055695,479.603699 393.995117,479.449890 
	C393.995117,482.771942 393.995117,485.884125 393.778198,488.997620 
	C393.272491,489.004883 392.983704,489.002380 392.695007,488.991364 
M448.497528,476.998779 
	C434.168488,476.999237 419.839020,476.948975 405.511200,477.081635 
	C404.139862,477.094330 402.779144,478.247162 401.413483,478.870728 
	C402.526306,479.578522 403.635040,480.895844 404.752563,480.903351 
	C423.579346,481.030121 442.407593,481.039124 461.234131,480.894836 
	C462.540253,480.884827 463.835541,479.465790 465.135864,478.701965 
	C464.880798,478.134247 464.625732,477.566498 464.370636,476.998779 
	C459.412292,476.998779 454.453918,476.998779 448.497528,476.998779 
z"/>
<path fill="#15C78E" opacity="1.000000" stroke="none" 
	d="
M392.542450,489.399536 
	C392.983704,489.002380 393.272491,489.004883 393.779724,489.446228 
	C394.261658,493.997070 395.018616,498.143219 394.668274,502.193665 
	C394.192047,507.699890 391.943085,513.414795 399.151337,516.378418 
	C399.404480,516.482544 399.731354,516.901428 399.700592,517.130066 
	C398.810608,523.741577 404.215271,522.862915 407.493805,522.854004 
	C431.036530,522.789734 454.579956,522.403564 478.116547,521.841858 
	C479.818970,521.801147 481.608246,519.718201 483.110107,518.319580 
	C485.236694,516.339172 485.654144,512.247559 489.938599,513.362183 
	C489.952759,514.753174 489.943817,515.764221 489.934875,516.775208 
	C486.138580,539.566467 466.887238,556.410034 443.519257,557.385620 
	C421.646423,558.298767 400.335846,542.792358 394.905334,521.242371 
	C394.582001,519.347900 394.200684,518.181091 393.819366,517.014282 
	C393.542542,515.899292 393.265717,514.784363 393.009460,512.923279 
	C393.011566,511.764313 392.993042,511.351440 392.974548,510.938568 
	C392.762329,509.450714 392.550110,507.962830 392.614227,505.774384 
	C392.799133,501.131927 392.707703,497.190094 392.616272,493.248230 
	C392.540802,492.101379 392.465363,490.954529 392.542450,489.399536 
z"/>
<path fill="#14C88D" opacity="1.000000" stroke="none" 
	d="
M246.570404,485.789001 
	C246.528976,493.060944 246.059845,500.580750 245.918304,508.106720 
	C245.854919,511.477234 247.673950,514.314636 251.288803,513.760010 
	C253.154358,513.473755 254.677032,510.952637 256.354614,509.441345 
	C256.114136,509.117065 255.873627,508.792816 255.633133,508.468567 
	C256.090515,508.560120 256.895538,508.551727 256.954773,508.757751 
	C258.668488,514.718750 263.358246,514.082520 268.014130,514.042480 
	C281.814484,513.923767 295.616516,514.024902 309.417786,513.986816 
	C314.389099,513.973145 320.154694,515.606079 321.515869,507.342224 
	C321.916901,507.613037 322.317932,507.883881 322.718964,508.154724 
	C323.411560,509.976135 324.104187,511.797546 324.796143,513.616760 
	C330.598541,513.506042 331.757629,512.338867 332.049286,506.962189 
	C332.163910,504.849182 332.829956,502.766052 333.469421,500.385864 
	C336.256195,523.471558 318.270355,547.213501 290.170746,548.801575 
	C257.985199,550.620544 234.294617,516.561218 246.570404,485.789001 
z"/>
<path fill="#08A9BE" opacity="1.000000" stroke="none" 
	d="
M395.984711,296.982819 
	C393.965485,297.492371 391.957275,298.324524 389.922974,298.394135 
	C388.642029,298.437927 387.322052,297.339874 386.209473,296.098724 
	C387.179443,294.206879 387.959503,292.970367 388.739563,291.733826 
	C388.739563,291.733856 388.950439,291.992950 389.207336,291.950317 
	C389.962555,291.925903 390.460907,291.944122 391.142151,292.157593 
	C391.877289,291.558014 392.429474,290.763153 393.024933,289.620972 
	C395.038330,286.178406 397.008423,283.083099 399.304260,279.950928 
	C400.078369,279.263702 400.526764,278.613373 400.979980,277.564850 
	C402.309692,273.761505 403.634583,270.356323 405.181702,267.199463 
	C405.947083,266.888580 406.907104,266.372406 406.969910,265.763641 
	C407.718414,258.505920 408.333435,251.234451 408.980347,243.599609 
	C408.970673,242.498718 408.964111,241.764801 409.217743,241.019287 
	C409.651520,241.004318 409.825104,241.000946 410.295471,241.291183 
	C411.079803,248.170273 411.633301,254.752029 412.008911,261.343903 
	C412.103668,263.006653 411.469971,264.700562 411.456329,266.382416 
	C411.438293,268.616638 411.656677,270.858215 411.917969,273.079651 
	C411.940643,273.272400 413.554749,273.478607 413.564270,273.443604 
	C414.101227,271.465790 415.076538,269.412842 414.893066,267.472778 
	C414.472717,263.027679 416.058105,261.536774 420.484985,261.922119 
	C425.407898,262.350647 430.385468,262.665741 434.023315,257.824432 
	C434.970764,256.563507 437.598267,256.132935 439.475586,256.079803 
	C446.455353,255.882324 453.445221,255.933868 460.428345,256.058655 
	C461.798676,256.083160 463.531036,256.455383 464.458893,257.337677 
	C471.294952,263.837982 475.407074,263.945557 481.580200,258.012390 
	C484.789856,260.725952 487.941406,263.390411 491.038849,266.401550 
	C488.012512,269.180634 485.040283,271.612946 481.798859,274.044128 
	C481.350189,274.689056 481.170746,275.335144 480.719849,276.186462 
	C478.958313,277.257965 477.468201,278.124237 475.593689,278.993408 
	C473.470917,280.004150 471.732544,281.011963 469.764923,282.038818 
	C469.535675,282.057892 469.075684,282.062469 468.717010,282.045074 
	C467.565308,282.667206 466.772278,283.306732 465.575256,283.978485 
	C462.461060,284.348602 459.750854,284.686493 456.631714,285.015808 
	C454.477692,285.344299 452.732574,285.681335 450.520325,286.024323 
	C444.374847,286.023499 438.696503,286.016754 432.727905,285.715027 
	C429.340118,285.286407 426.242004,285.083923 423.145813,285.109802 
	C422.775665,285.112885 422.415924,286.358063 422.029388,287.245941 
	C421.954071,287.753510 421.936951,288.044739 421.956055,288.338135 
	C421.519897,288.505768 421.083740,288.673401 420.038696,288.585510 
	C413.643890,289.906403 407.858002,291.482819 401.723877,293.010803 
	C398.158508,291.430573 397.359741,293.403259 396.774597,296.107635 
	C396.300903,296.423706 396.108032,296.676758 395.984711,296.982819 
M454.633698,275.001221 
	C452.367310,275.188324 449.418793,274.237915 449.111755,279.414825 
	C453.588440,278.406952 457.536926,277.518005 461.485413,276.629059 
	C461.425751,276.086456 461.366089,275.543823 461.306396,275.001221 
	C459.378571,275.001221 457.450714,275.001221 454.633698,275.001221 
z"/>
<path fill="#15B8A5" opacity="1.000000" stroke="none" 
	d="
M384.817444,434.877258 
	C383.134064,437.039276 381.326843,438.909668 379.205017,440.915344 
	C377.268280,439.122498 375.646118,437.194336 373.848602,434.585358 
	C373.246887,433.637054 372.820526,433.369568 372.394165,433.102112 
	C368.099213,430.177063 363.804230,427.252014 359.398438,423.795013 
	C358.891357,422.554260 358.495117,421.845459 358.098846,421.136658 
	C357.403809,421.590668 356.708801,422.044678 356.013794,422.498718 
	C342.139130,419.998627 328.357300,416.563843 314.372284,415.174774 
	C273.447174,411.109741 259.890137,368.140869 272.608765,340.952759 
	C272.924591,341.225739 272.962921,341.732025 273.016846,342.618530 
	C272.453766,345.111664 271.875061,347.224548 271.151031,350.047668 
	C271.003784,351.501068 271.001892,352.244202 271.000000,352.987335 
	C270.667175,354.722198 270.334320,356.457092 270.001007,358.846161 
	C270.000519,359.500366 270.002045,359.999329 270.002045,359.999329 
	C270.001251,361.388794 270.000458,362.778290 269.999298,364.984161 
	C270.002991,366.865997 270.007080,367.931396 270.011139,368.996826 
	C270.488861,371.497894 270.966553,373.998993 271.728638,377.140442 
	C272.870483,381.391937 273.003754,385.575287 277.298615,385.394196 
	C278.366364,388.016449 279.180878,390.016815 280.050720,392.359589 
	C281.068756,393.137115 282.031464,393.572205 283.150513,394.318695 
	C284.169952,395.826324 285.323883,396.909515 285.841095,398.240204 
	C287.335999,402.086365 289.643707,404.102539 294.049377,403.250916 
	C294.935608,403.079620 296.467804,403.994843 297.048401,404.851990 
	C301.980011,412.132660 309.844421,411.952301 317.230865,412.822815 
	C318.127045,412.928436 319.214020,411.414948 320.131744,410.713623 
	C317.679932,408.655731 315.802887,407.080261 313.559601,405.197388 
	C316.788757,402.980774 318.901642,401.614319 321.131256,405.370026 
	C321.891571,406.650757 323.956116,407.472778 325.579803,407.868988 
	C331.572296,409.331177 337.371094,412.466125 343.906219,409.157532 
	C345.889160,408.153656 348.809631,409.001434 351.300690,409.001373 
	C356.716827,409.001282 362.132996,409.001373 368.195862,409.001373 
	C367.149139,402.953400 366.258118,397.780548 365.357056,392.609467 
	C364.914764,390.071259 364.453735,387.536316 364.001221,384.999878 
	C364.645172,375.769653 365.366394,366.543579 365.862549,357.305420 
	C365.952698,355.627350 364.618347,353.826752 364.852020,352.214722 
	C365.109772,350.436493 366.416382,348.810272 367.607117,347.066895 
	C367.501801,353.101929 366.966492,359.182953 366.626068,365.274902 
	C365.631805,383.066803 367.331299,400.507355 373.382782,417.749084 
	C373.114777,420.803802 373.012543,423.432617 373.278564,426.023590 
	C373.345734,426.677948 374.885742,427.839569 375.233643,427.675507 
	C376.071136,427.280548 376.603607,426.238739 377.259094,425.457886 
	C378.468842,427.080780 379.678589,428.703674 380.643127,430.685364 
	C379.903137,431.768890 379.408386,432.493622 378.913666,433.218353 
	C379.910736,432.825592 380.907837,432.432831 381.904907,432.040070 
	C382.834442,432.888611 383.763977,433.737152 384.817444,434.877258 
M366.389954,426.202881 
	C366.785248,426.207123 367.180511,426.211365 367.575806,426.215607 
	C367.577301,426.051575 367.589813,425.745056 367.578674,425.744171 
	C367.185333,425.713776 366.789764,425.712036 366.389954,426.202881 
z"/>
<path fill="#33A0BD" opacity="1.000000" stroke="none" 
	d="
M426.505066,195.732880 
	C435.918610,186.791092 447.797821,185.950470 459.680237,186.423737 
	C496.062439,187.872772 511.518372,221.826584 501.781219,251.142792 
	C500.040009,256.385040 496.612122,261.067078 493.556274,266.068542 
	C493.149506,266.129272 492.899170,265.900879 492.936096,265.543976 
	C493.002808,264.465820 493.032623,263.744568 493.336121,262.886475 
	C494.404663,261.833984 495.199554,260.918365 496.042450,259.639648 
	C497.069336,256.208160 498.048187,253.139816 499.388672,249.996185 
	C500.503967,247.611191 501.257660,245.301453 502.021301,242.569305 
	C502.040222,238.089859 502.049164,234.032822 502.053528,229.531342 
	C501.995209,220.518036 500.160492,212.631027 493.760193,206.339096 
	C489.592133,202.241592 486.307831,196.582382 481.380402,194.038925 
	C463.481720,184.799927 445.423309,185.411850 427.618652,195.951187 
	C426.997894,195.841217 426.751495,195.787048 426.505066,195.732880 
z"/>
<path fill="#26A2B9" opacity="1.000000" stroke="none" 
	d="
M426.196899,195.829041 
	C426.751495,195.787048 426.997894,195.841217 427.488892,196.222366 
	C423.817566,201.035934 419.436981,205.203186 416.086914,210.078552 
	C409.948273,219.011963 408.540741,229.546631 407.451599,240.053543 
	C407.423523,240.324371 408.432312,240.702682 408.957581,241.030869 
	C408.964111,241.764801 408.970673,242.498718 408.605713,243.686127 
	C407.142639,251.743469 406.051056,259.347321 404.959473,266.951172 
	C403.634583,270.356323 402.309692,273.761505 400.662903,277.616455 
	C399.886841,278.706787 399.432678,279.347321 398.978516,279.987823 
	C397.008423,283.083099 395.038330,286.178406 392.710754,289.634338 
	C391.936249,290.030762 391.519226,290.066498 390.995758,289.986877 
	C390.889343,289.871552 390.680359,289.637421 390.680359,289.637421 
	C402.907288,274.732971 404.946747,256.884338 405.646393,238.567322 
	C406.297302,221.526855 412.284607,206.883682 426.196899,195.829041 
z"/>
<path fill="#33A0BD" opacity="1.000000" stroke="none" 
	d="
M475.978088,278.990509 
	C477.468201,278.124237 478.958313,277.257965 480.971436,276.033569 
	C481.685669,275.132080 481.876892,274.588684 482.068115,274.045288 
	C485.040283,271.612946 488.012512,269.180634 491.340332,266.389160 
	C492.097046,265.986969 492.498108,265.943909 492.899170,265.900879 
	C492.899170,265.900879 493.149506,266.129272 493.276917,266.241760 
	C484.149078,279.674438 470.558624,285.298706 455.190369,287.041534 
	C447.799469,287.879669 440.240784,287.238342 432.584595,287.012115 
	C432.695984,286.575195 432.898315,286.326111 433.018127,286.009979 
	C438.696503,286.016754 444.374847,286.023499 450.847778,286.054260 
	C453.441742,285.727020 455.241180,285.375732 457.040619,285.024414 
	C459.750854,284.686493 462.461060,284.348602 465.867340,283.879974 
	C467.400818,283.186981 468.238251,282.624725 469.075684,282.062469 
	C469.075684,282.062469 469.535675,282.057892 470.124329,282.034424 
	C472.467987,281.004181 474.223022,279.997345 475.978088,278.990509 
z"/>
<path fill="#26A2B9" opacity="1.000000" stroke="none" 
	d="
M388.415222,291.836609 
	C387.959503,292.970367 387.179443,294.206879 386.198669,295.714172 
	C385.354431,296.431427 384.710999,296.877869 383.647186,297.661133 
	C381.730011,299.496552 380.233185,300.995117 378.779602,302.450409 
	C377.278931,302.608643 375.631226,302.782410 373.983551,302.956146 
	C370.503082,303.855103 367.022583,304.754059 363.299866,305.411346 
	C371.402069,300.759583 379.746490,296.349487 388.415222,291.836609 
z"/>
<path fill="#33A0BD" opacity="1.000000" stroke="none" 
	d="
M395.981995,297.215454 
	C396.108032,296.676758 396.300903,296.423706 397.117798,296.085724 
	C399.138855,294.984955 400.605469,294.022095 402.072083,293.059265 
	C407.858002,291.482819 413.643890,289.906403 419.683533,288.571289 
	C412.155914,291.962799 404.374573,295.113007 396.264282,298.318726 
	C395.930817,298.064636 395.945465,297.755890 395.981995,297.215454 
z"/>
<path fill="#15BF9C" opacity="1.000000" stroke="none" 
	d="
M490.152588,516.447083 
	C489.943817,515.764221 489.952759,514.753174 489.967102,512.904724 
	C488.949646,504.066742 487.926727,496.066223 486.903809,488.065704 
	C486.903809,488.065704 487.015228,487.983826 487.070679,487.942413 
	C491.643097,496.912018 491.606079,506.446564 490.152588,516.447083 
z"/>
<path fill="#15BF9C" opacity="1.000000" stroke="none" 
	d="
M377.196106,425.125427 
	C376.603607,426.238739 376.071136,427.280548 375.233643,427.675507 
	C374.885742,427.839569 373.345734,426.677948 373.278564,426.023590 
	C373.012543,423.432617 373.114777,420.803802 373.409393,418.120911 
	C374.869904,420.299530 376.001495,422.546265 377.196106,425.125427 
z"/>
<path fill="#1BA4A5" opacity="1.000000" stroke="none" 
	d="
M304.666626,315.999817 
	C300.511414,317.640350 296.044067,319.171051 291.315063,320.468597 
	C295.487122,318.786926 299.920837,317.338440 304.666626,315.999817 
z"/>
<path fill="#0EAEB6" opacity="1.000000" stroke="none" 
	d="
M432.727905,285.715027 
	C432.898315,286.326111 432.695984,286.575195 432.203522,286.885406 
	C430.461853,287.172516 428.927765,287.331482 426.560516,287.307434 
	C424.502014,287.092133 423.276672,287.059814 422.051331,287.027496 
	C422.415924,286.358063 422.775665,285.112885 423.145813,285.109802 
	C426.242004,285.083923 429.340118,285.286407 432.727905,285.715027 
z"/>
<path fill="#1BA4A5" opacity="1.000000" stroke="none" 
	d="
M320.592590,313.114258 
	C316.580414,314.092834 312.159027,315.032471 307.290833,315.947754 
	C307.386963,315.586395 307.929871,315.249359 308.870209,314.947601 
	C309.267639,314.982880 309.503937,314.982391 309.503937,314.982391 
	C311.063843,314.645050 312.623779,314.307678 314.939697,313.993469 
	C316.399658,313.876709 317.103638,313.736786 317.807587,313.596832 
	C318.599518,313.422974 319.391418,313.249115 320.592590,313.114258 
z"/>
<path fill="#26A2B9" opacity="1.000000" stroke="none" 
	d="
M352.655792,307.658691 
	C350.546570,308.381561 348.072693,309.038635 345.328735,309.467468 
	C347.469482,308.690491 349.880310,308.141693 352.655792,307.658691 
z"/>
<path fill="#15BF9C" opacity="1.000000" stroke="none" 
	d="
M392.462341,493.665405 
	C392.707703,497.190094 392.799133,501.131927 392.734131,505.415802 
	C392.487946,501.866058 392.398163,497.974304 392.462341,493.665405 
z"/>
<path fill="#14C88D" opacity="1.000000" stroke="none" 
	d="
M333.361145,496.631409 
	C332.539978,494.441193 331.804077,491.897369 331.097595,488.910278 
	C331.900146,491.070587 332.673309,493.674194 333.361145,496.631409 
z"/>
<path fill="#26A2B9" opacity="1.000000" stroke="none" 
	d="
M360.674316,305.737915 
	C359.199036,306.422089 357.380798,307.053894 355.327881,307.462311 
	C356.839233,306.721161 358.585297,306.203339 360.674316,305.737915 
z"/>
<path fill="#15BF9C" opacity="1.000000" stroke="none" 
	d="
M356.272064,422.722290 
	C356.708801,422.044678 357.403809,421.590668 358.098846,421.136658 
	C358.495117,421.845459 358.891357,422.554260 359.186829,423.527924 
	C358.234131,423.510468 357.382233,423.228180 356.272064,422.722290 
z"/>
<path fill="#33A0BD" opacity="1.000000" stroke="none" 
	d="
M422.029358,287.245941 
	C423.276672,287.059814 424.502014,287.092133 426.183716,287.228119 
	C425.308044,287.725159 423.975952,288.118530 422.299988,288.425018 
	C421.936951,288.044739 421.954071,287.753510 422.029358,287.245941 
z"/>
<path fill="#15BF9C" opacity="1.000000" stroke="none" 
	d="
M381.843231,431.805267 
	C380.907837,432.432831 379.910736,432.825592 378.913666,433.218353 
	C379.408386,432.493622 379.903137,431.768890 380.714722,431.017090 
	C381.366608,431.073608 381.616608,431.267090 381.843231,431.805267 
z"/>
<path fill="#26A2B9" opacity="1.000000" stroke="none" 
	d="
M342.681732,309.594666 
	C341.839844,310.023804 340.671570,310.361481 339.278900,310.493408 
	C340.154785,310.026154 341.255096,309.764679 342.681732,309.594666 
z"/>
<path fill="#15BF9C" opacity="1.000000" stroke="none" 
	d="
M393.728638,517.319580 
	C394.200684,518.181091 394.582001,519.347900 394.935089,520.861633 
	C394.483887,520.013977 394.060883,518.819397 393.728638,517.319580 
z"/>
<path fill="#26A2B9" opacity="1.000000" stroke="none" 
	d="
M336.751404,310.679932 
	C336.256378,310.938690 335.475250,311.132477 334.465149,311.222382 
	C334.979187,310.950684 335.722260,310.782837 336.751404,310.679932 
z"/>
<path fill="#26A2B9" opacity="1.000000" stroke="none" 
	d="
M390.959229,291.962341 
	C390.460907,291.944122 389.962555,291.925903 389.098511,291.820374 
	C389.197571,291.113922 389.662384,290.494751 390.403778,289.756500 
	C390.680359,289.637421 390.889343,289.871552 390.959473,290.295105 
	C391.006165,291.133209 390.982697,291.547760 390.959229,291.962341 
z"/>
<path fill="#0EAEB6" opacity="1.000000" stroke="none" 
	d="
M317.539673,313.502869 
	C317.103638,313.736786 316.399658,313.876709 315.420624,314.033997 
	C315.854279,313.837219 316.563049,313.623047 317.539673,313.502869 
z"/>
<path fill="#15BF9C" opacity="1.000000" stroke="none" 
	d="
M392.858887,511.109497 
	C392.993042,511.351440 393.011566,511.764313 393.047241,512.485657 
	C392.957367,512.289551 392.850281,511.785004 392.858887,511.109497 
z"/>
<path fill="#15BF9C" opacity="1.000000" stroke="none" 
	d="
M372.553802,433.440887 
	C372.820526,433.369568 373.246887,433.637054 373.780151,434.280273 
	C373.495850,434.363892 373.104645,434.071777 372.553802,433.440887 
z"/>
<path fill="#14C88D" opacity="1.000000" stroke="none" 
	d="
M247.617630,483.609680 
	C247.765656,483.815918 247.657730,484.199615 247.318481,484.776001 
	C247.178680,484.574860 247.270187,484.181000 247.617630,483.609680 
z"/>
<path fill="#33A0BD" opacity="1.000000" stroke="none" 
	d="
M393.283508,300.369080 
	C393.182190,300.316620 393.416809,300.089142 393.497833,300.083374 
	C393.578857,300.077576 393.384857,300.421570 393.283508,300.369080 
z"/>
<path fill="#0EAEB6" opacity="1.000000" stroke="none" 
	d="
M309.482025,314.876404 
	C309.503937,314.982391 309.267639,314.982880 309.211060,315.003540 
	C309.154449,315.024200 309.460114,314.770447 309.482025,314.876404 
z"/>
<path fill="#0BA6C0" opacity="1.000000" stroke="none" 
	d="
M314.312561,197.688843 
	C314.758423,197.644485 315.026428,197.812515 315.353638,198.281952 
	C315.470734,198.491058 315.216644,198.772751 314.875916,198.787537 
	C314.277130,198.603516 314.084625,198.354095 313.957703,198.054077 
	C313.957703,198.054077 314.192596,197.808945 314.312561,197.688843 
z"/>
<path fill="#0DB7A9" opacity="1.000000" stroke="none" 
	d="
M363.653442,385.057312 
	C364.453735,387.536316 364.914764,390.071259 365.357056,392.609467 
	C366.258118,397.780548 367.149139,402.953400 368.195862,409.001373 
	C362.132996,409.001373 356.716827,409.001282 351.300690,409.001373 
	C348.809631,409.001434 345.889160,408.153656 343.906219,409.157532 
	C337.371094,412.466125 331.572296,409.331177 325.579803,407.868988 
	C323.956116,407.472778 321.891571,406.650757 321.131256,405.370026 
	C318.901642,401.614319 316.788757,402.980774 313.559601,405.197388 
	C315.802887,407.080261 317.679932,408.655731 320.131744,410.713623 
	C319.214020,411.414948 318.127045,412.928436 317.230865,412.822815 
	C309.844421,411.952301 301.980011,412.132660 297.048401,404.851990 
	C296.467804,403.994843 294.935608,403.079620 294.049377,403.250916 
	C289.643707,404.102539 287.335999,402.086365 285.841095,398.240204 
	C285.323883,396.909515 284.169952,395.826324 283.348389,394.038116 
	C284.147125,391.817993 284.962433,390.210815 285.569427,388.528412 
	C285.628418,388.364929 283.924530,387.300293 283.841614,387.390625 
	C282.702606,388.631683 281.709595,390.006073 280.667786,391.337616 
	C280.472748,391.586884 280.221008,391.791809 279.995422,392.017181 
	C279.180878,390.016815 278.366364,388.016449 277.298615,385.394196 
	C273.003754,385.575287 272.870483,381.391937 272.005920,377.391663 
	C276.643066,380.868591 282.213562,379.980743 287.585724,379.988739 
	C306.902222,380.017456 326.218781,380.000061 345.535339,379.999969 
	C354.177185,379.999908 354.177185,379.999756 356.059937,371.549377 
	C359.589355,377.325073 355.161163,385.891998 362.198547,390.490631 
	C362.565033,388.711121 362.935364,386.912933 363.653442,385.057312 
M308.539581,405.712738 
	C307.962616,405.601013 307.385681,405.489288 306.808716,405.377563 
	C306.803558,405.787018 306.798431,406.196442 306.793304,406.605896 
	C307.372986,406.508331 307.952698,406.410767 308.539581,405.712738 
z"/>
<path fill="#0DB7A9" opacity="1.000000" stroke="none" 
	d="
M270.270386,368.785889 
	C270.007080,367.931396 270.002991,366.865997 270.000702,365.401001 
	C270.178192,366.192627 270.353882,367.383820 270.270386,368.785889 
z"/>
<path fill="#0DB7A9" opacity="1.000000" stroke="none" 
	d="
M271.249756,352.808350 
	C271.001892,352.244202 271.003784,351.501068 271.013458,350.386780 
	C271.180664,350.886841 271.340088,351.758087 271.249756,352.808350 
z"/>
<path fill="#0DB7A9" opacity="1.000000" stroke="none" 
	d="
M270.168945,359.911102 
	C270.002045,359.999329 270.000519,359.500366 270.002655,359.250916 
	C270.115143,359.275238 270.225525,359.549072 270.168945,359.911102 
z"/>
<path fill="#05A1C9" opacity="1.000000" stroke="none" 
	d="
M313.604797,197.997940 
	C314.084625,198.354095 314.277130,198.603516 314.741516,198.921402 
	C317.341400,202.467499 319.977539,205.754807 322.056274,209.363190 
	C323.912445,212.585144 326.129730,216.068771 326.465912,219.600800 
	C327.210083,227.419769 326.943634,235.342392 326.865234,243.220535 
	C326.857483,244.000381 325.302795,244.764847 324.466095,245.536453 
	C324.286346,244.415283 323.874084,243.274185 323.968231,242.176514 
	C324.323303,238.036896 324.843079,233.911423 325.347931,229.358994 
	C323.968536,229.787415 323.436249,229.887375 323.439850,229.960922 
	C323.712677,235.493210 321.299988,237.585968 315.866943,236.031464 
	C315.097992,235.811432 314.211700,236.012878 313.380066,235.998947 
	C293.624451,235.668045 273.869507,235.274918 254.112671,235.053635 
	C250.364685,235.011642 246.609100,235.648941 242.240494,236.026001 
	C242.237473,229.527298 242.138107,223.995071 244.504166,217.718323 
	C247.040298,210.990402 249.644196,204.995682 255.093246,200.479614 
	C260.510010,195.990326 266.298523,192.504501 273.227966,190.052612 
	C284.416443,186.093750 294.233124,189.350037 304.285583,192.792130 
	C307.486786,193.888260 310.274780,196.191116 313.604797,197.997940 
z"/>
<path fill="#08A9BE" opacity="1.000000" stroke="none" 
	d="
M373.993835,303.338043 
	C375.631226,302.782410 377.278931,302.608643 378.779602,302.450409 
	C380.233185,300.995117 381.730011,299.496552 383.599823,297.978882 
	C386.154877,302.486145 381.222534,302.645294 379.727509,304.918152 
	C378.885925,306.197662 377.987457,307.517303 377.525360,308.951233 
	C376.771027,311.291962 376.352417,313.740906 375.792175,316.144196 
	C374.949280,316.009247 374.106384,315.874298 373.263489,315.739349 
	C373.510345,311.732880 373.757233,307.726410 373.993835,303.338043 
z"/>
<path fill="#10C395" opacity="1.000000" stroke="none" 
	d="
M486.569824,487.882385 
	C487.926727,496.066223 488.949646,504.066742 489.944031,512.524719 
	C485.654144,512.247559 485.236694,516.339172 483.110107,518.319580 
	C481.608246,519.718201 479.818970,521.801147 478.116547,521.841858 
	C454.579956,522.403564 431.036530,522.789734 407.493805,522.854004 
	C404.215271,522.862915 398.810608,523.741577 399.700592,517.130066 
	C399.731354,516.901428 399.404480,516.482544 399.151337,516.378418 
	C391.943085,513.414795 394.192047,507.699890 394.668274,502.193665 
	C395.018616,498.143219 394.261658,493.997070 393.996643,489.444946 
	C393.995117,485.884125 393.995117,482.771942 393.995117,479.449890 
	C395.055695,479.603699 395.860077,479.570496 395.910339,479.749329 
	C397.660736,485.974823 402.221832,485.207397 407.288940,485.135010 
	C429.438385,484.818542 451.596527,484.861359 473.747437,485.120636 
	C477.919739,485.169464 482.073547,486.798981 486.569824,487.882385 
z"/>
<path fill="#10C395" opacity="1.000000" stroke="none" 
	d="
M448.996521,476.998779 
	C454.453918,476.998779 459.412292,476.998779 464.370636,476.998779 
	C464.625732,477.566498 464.880798,478.134247 465.135864,478.701965 
	C463.835541,479.465790 462.540253,480.884827 461.234131,480.894836 
	C442.407593,481.039124 423.579346,481.030121 404.752563,480.903351 
	C403.635040,480.895844 402.526306,479.578522 401.413483,478.870728 
	C402.779144,478.247162 404.139862,477.094330 405.511200,477.081635 
	C419.839020,476.948975 434.168488,476.999237 448.996521,476.998779 
z"/>
<path fill="#06A1C9" opacity="1.000000" stroke="none" 
	d="
M409.217712,241.019287 
	C408.432312,240.702682 407.423523,240.324371 407.451599,240.053543 
	C408.540741,229.546631 409.948273,219.011963 416.086914,210.078552 
	C419.436981,205.203186 423.817566,201.035934 427.863190,196.278168 
	C445.423309,185.411850 463.481720,184.799927 481.380402,194.038925 
	C486.307831,196.582382 489.592133,202.241592 493.760193,206.339096 
	C500.160492,212.631027 501.995209,220.518036 501.655029,229.622345 
	C500.612885,233.826065 499.964691,237.494324 499.237274,241.610825 
	C498.410797,240.609283 497.325653,239.905411 497.289093,239.150726 
	C497.054321,234.306763 494.101990,233.868927 490.126831,233.932404 
	C478.315216,234.121017 466.498474,233.963058 454.684357,234.039856 
	C452.909058,234.051376 451.109497,234.483383 449.369293,234.914993 
	C445.485718,235.878250 441.687347,237.325714 437.755127,237.921890 
	C430.423187,239.033508 422.600769,235.742065 414.788177,241.372833 
	C414.788177,235.460663 414.788177,230.535599 414.788177,225.610519 
	C414.352234,225.590103 413.916260,225.569687 413.480316,225.549271 
	C412.319763,230.698715 411.159241,235.848160 409.998718,240.997589 
	C409.825104,241.000946 409.651520,241.004318 409.217712,241.019287 
z"/>
<path fill="#06A5C2" opacity="1.000000" stroke="none" 
	d="
M410.295471,241.291183 
	C411.159241,235.848160 412.319763,230.698715 413.480316,225.549271 
	C413.916260,225.569687 414.352234,225.590103 414.788177,225.610519 
	C414.788177,230.535599 414.788177,235.460663 414.788177,241.372833 
	C422.600769,235.742065 430.423187,239.033508 437.755127,237.921890 
	C441.687347,237.325714 445.485718,235.878250 449.369293,234.914993 
	C451.109497,234.483383 452.909058,234.051376 454.684357,234.039856 
	C466.498474,233.963058 478.315216,234.121017 490.126831,233.932404 
	C494.101990,233.868927 497.054321,234.306763 497.289093,239.150726 
	C497.325653,239.905411 498.410797,240.609283 499.237274,241.610825 
	C499.964691,237.494324 500.612885,233.826065 501.659607,230.066803 
	C502.049164,234.032822 502.040222,238.089859 501.701355,242.740067 
	C500.589996,245.579315 499.808533,247.825394 499.027069,250.071457 
	C498.048187,253.139816 497.069336,256.208160 495.685852,259.598480 
	C493.951660,258.403687 492.622070,256.886902 491.286987,255.363831 
	C488.335571,258.801147 488.498810,259.485718 493.062439,263.023315 
	C493.032623,263.744568 493.002808,264.465820 492.936096,265.543976 
	C492.498108,265.943909 492.097046,265.986969 491.394470,266.042419 
	C487.941406,263.390411 484.789856,260.725952 481.580200,258.012390 
	C475.407074,263.945557 471.294952,263.837982 464.458893,257.337677 
	C463.531036,256.455383 461.798676,256.083160 460.428345,256.058655 
	C453.445221,255.933868 446.455353,255.882324 439.475586,256.079803 
	C437.598267,256.132935 434.970764,256.563507 434.023315,257.824432 
	C430.385468,262.665741 425.407898,262.350647 420.484985,261.922119 
	C416.058105,261.536774 414.472717,263.027679 414.893066,267.472778 
	C415.076538,269.412842 414.101227,271.465790 413.564270,273.443604 
	C413.554749,273.478607 411.940643,273.272400 411.917969,273.079651 
	C411.656677,270.858215 411.438293,268.616638 411.456329,266.382416 
	C411.469971,264.700562 412.103668,263.006653 412.008911,261.343903 
	C411.633301,254.752029 411.079803,248.170273 410.295471,241.291183 
z"/>
<path fill="#06A1C9" opacity="1.000000" stroke="none" 
	d="
M405.181702,267.199463 
	C406.051056,259.347321 407.142639,251.743469 408.608826,244.053101 
	C408.333435,251.234451 407.718414,258.505920 406.969910,265.763641 
	C406.907104,266.372406 405.947083,266.888580 405.181702,267.199463 
z"/>
<path fill="#0BA6C0" opacity="1.000000" stroke="none" 
	d="
M455.078308,275.001221 
	C457.450714,275.001221 459.378571,275.001221 461.306396,275.001221 
	C461.366089,275.543823 461.425751,276.086456 461.485413,276.629059 
	C457.536926,277.518005 453.588440,278.406952 449.111755,279.414825 
	C449.418793,274.237915 452.367310,275.188324 455.078308,275.001221 
z"/>
<path fill="#0EAEB6" opacity="1.000000" stroke="none" 
	d="
M401.723877,293.010803 
	C400.605469,294.022095 399.138855,294.984955 397.329041,295.969727 
	C397.359741,293.403259 398.158508,291.430573 401.723877,293.010803 
z"/>
<path fill="#0EAEB6" opacity="1.000000" stroke="none" 
	d="
M475.593689,278.993408 
	C474.223022,279.997345 472.467987,281.004181 470.353577,282.015381 
	C471.732544,281.011963 473.470917,280.004150 475.593689,278.993408 
z"/>
<path fill="#0EAEB6" opacity="1.000000" stroke="none" 
	d="
M456.631714,285.015808 
	C455.241180,285.375732 453.441742,285.727020 451.314880,286.048340 
	C452.732574,285.681335 454.477692,285.344299 456.631714,285.015808 
z"/>
<path fill="#0EAEB6" opacity="1.000000" stroke="none" 
	d="
M391.142181,292.157593 
	C390.982697,291.547760 391.006165,291.133209 391.065887,290.410431 
	C391.519226,290.066498 391.936249,290.030762 392.667480,289.981659 
	C392.429474,290.763153 391.877289,291.558014 391.142181,292.157593 
z"/>
<path fill="#0EAEB6" opacity="1.000000" stroke="none" 
	d="
M468.717010,282.045074 
	C468.238251,282.624725 467.400818,283.186981 466.271301,283.847748 
	C466.772278,283.306732 467.565308,282.667206 468.717010,282.045074 
z"/>
<path fill="#0EAEB6" opacity="1.000000" stroke="none" 
	d="
M399.304260,279.950928 
	C399.432678,279.347321 399.886841,278.706787 400.658081,278.014648 
	C400.526764,278.613373 400.078369,279.263702 399.304260,279.950928 
z"/>
<path fill="#0EAEB6" opacity="1.000000" stroke="none" 
	d="
M481.798889,274.044128 
	C481.876892,274.588684 481.685669,275.132080 481.242859,275.828369 
	C481.170746,275.335144 481.350189,274.689056 481.798889,274.044128 
z"/>
<path fill="#10B4AD" opacity="1.000000" stroke="none" 
	d="
M280.050720,392.359589 
	C280.221008,391.791809 280.472748,391.586884 280.667786,391.337616 
	C281.709595,390.006073 282.702606,388.631683 283.841614,387.390625 
	C283.924530,387.300293 285.628418,388.364929 285.569427,388.528412 
	C284.962433,390.210815 284.147125,391.817993 283.192017,393.726746 
	C282.031464,393.572205 281.068756,393.137115 280.050720,392.359589 
z"/>
<path fill="#15BF9C" opacity="1.000000" stroke="none" 
	d="
M366.392242,425.954590 
	C366.789764,425.712036 367.185333,425.713776 367.578674,425.744171 
	C367.589813,425.745056 367.577301,426.051575 367.575806,426.215607 
	C367.180511,426.211365 366.785248,426.207123 366.392242,425.954590 
z"/>
<path fill="#08A9BE" opacity="1.000000" stroke="none" 
	d="
M493.336121,262.886475 
	C488.498810,259.485718 488.335571,258.801147 491.286987,255.363831 
	C492.622070,256.886902 493.951660,258.403687 495.637817,259.961609 
	C495.199554,260.918365 494.404663,261.833984 493.336121,262.886475 
z"/>
<path fill="#08A9BE" opacity="1.000000" stroke="none" 
	d="
M499.388672,249.996185 
	C499.808533,247.825394 500.589996,245.579315 501.691406,243.162476 
	C501.257660,245.301453 500.503967,247.611191 499.388672,249.996185 
z"/>
<path fill="#15B8A5" opacity="1.000000" stroke="none" 
	d="
M308.535980,406.013000 
	C307.952698,406.410767 307.372986,406.508331 306.793304,406.605896 
	C306.798431,406.196442 306.803558,405.787018 306.808716,405.377563 
	C307.385681,405.489288 307.962616,405.601013 308.535980,406.013000 
z"/>
</svg>